<svg id="bezelOverlay" xmlns="http://www.w3.org/2000/svg">
    <g>
        <path d="M773.231,722.47c-62.038,0-120.702-13.457-172.887-37.445h-0.09c-58.467-32.299-126.59-50.816-199.354-50.816c-71.66,0-138.842,17.977-196.696,49.346l8.63,0.035l-8.63-0.02c-52.182,23.971-110.866,37.445-172.888,37.445c-10.395,0-21.135-0.389-31.317-1.117V1280c62.021,0,151.572-15.863,203.754-39.834c0,0,17.22-9.209,28.144-13.881c41.388-18.418,86.972-39.986,134.601-34.127c18.889,2.324,30.94,22.43,30.94,41.66c0,23.412-21.338,44.676-45.563,46.182h102.312c-24.224-1.506-47.525-22.787-47.525-46.182c0-18.994,11.66-39.054,30.253-41.424c47.806-6.095,93.777,15.794,134.963,35.193C662.75,1270.39,713.5,1280,800,1280l0.001-558.375C791.157,722.183,782.239,722.47,773.231,722.47 M756.266,1255.265c-55.758-2.234-108.522-15.287-155.921-37.072h-0.09c-58.467-32.299-126.59-50.818-199.354-50.818c-71.66,0-138.842,17.979-196.696,49.346l8.646,0.033l-0.017,0.018l-8.63-0.033c-48.915,22.48-103.538,35.717-161.279,37.273c-19.513-5.162-33.829-21.971-33.829-41.93c0-19.146,13.195-35.396,31.516-41.236c58.431-1.338,113.703-14.594,163.142-37.326c0,0,17.22-9.211,28.144-13.865c51.081-22.734,108.211-35.48,168.553-35.48c61.464,0,119.604,13.221,171.428,36.785c15.091,7.447,28.016,14.033,28.016,14.033c48.752,22.395,103.158,35.617,160.686,37.258c17.708,6.145,30.324,22.125,30.324,40.863C790.903,1233.343,776.193,1250.355,756.266,1255.265 M756.229,1148.619c-55.76-2.217-108.501-15.287-155.884-37.055h-0.09c-58.467-32.299-126.59-50.82-199.354-50.82c-71.66,0-138.842,17.979-196.696,49.348l8.63,0.031l-8.63-0.016c-48.915,22.465-103.518,35.701-161.243,37.277c-19.533-5.166-33.865-21.973-33.865-41.949c0-19.129,13.18-35.381,31.48-41.238c58.43-1.32,113.719-14.572,163.177-37.309c0,0,17.22-9.207,28.144-13.863l-9.984-0.035v-0.016l9.984,0.051c51.081-22.736,108.211-35.48,168.553-35.48c61.464,0,119.604,13.219,171.428,36.768c15.091,7.465,28.016,14.033,28.016,14.033c48.752,22.412,103.195,35.633,160.74,37.273c17.671,6.164,30.27,22.129,30.27,40.848C790.903,1126.712,776.176,1143.726,756.229,1148.619 M756.176,1041.988c-55.723-2.232-108.466-15.285-155.831-37.072h-0.09c-58.467-32.279-126.59-50.801-199.354-50.801c-71.66,0-138.842,17.961-196.696,49.346c-48.898,22.48-103.481,35.701-161.207,37.293c-19.549-5.146-33.901-21.975-33.901-41.965c0-19.111,13.159-35.346,31.428-41.221c58.467-1.32,113.771-14.574,163.229-37.311c0,0,17.22-9.207,28.144-13.879c51.081-22.736,108.211-35.48,168.553-35.48c61.464,0,119.604,13.236,171.428,36.783c15.091,7.465,28.016,14.033,28.016,14.033c48.771,22.412,103.213,35.633,160.775,37.277c17.653,6.16,30.234,22.123,30.234,40.828C790.903,1020.083,776.156,1037.113,756.176,1041.988 M756.139,935.359c-55.723-2.234-108.429-15.303-155.794-37.072h-0.09c-58.467-32.283-126.59-50.801-199.354-50.801c-71.66,0-138.842,17.959-196.696,49.344c-48.878,22.465-103.466,35.701-161.155,37.277c-19.585-5.131-33.953-21.957-33.953-41.965c0-19.096,13.123-35.33,31.393-41.203c58.465-1.32,113.791-14.574,163.265-37.311c0,0,17.22-9.209,28.144-13.881c51.081-22.734,108.211-35.48,168.553-35.48c61.464,0,119.604,13.219,171.428,36.783c15.091,7.451,28.016,14.033,28.016,14.033c48.771,22.414,103.25,35.635,160.812,37.277c17.634,6.178,30.197,22.107,30.197,40.812C790.903,913.453,776.139,930.482,756.139,935.359 M756.084,828.712c-55.686-2.234-108.394-15.287-155.739-37.057h-0.09c-58.467-32.299-126.59-50.801-199.354-50.801c-71.66,0-138.842,17.961-196.696,49.346l8.646,0.018c0,0.018,0,0.018-0.017,0.018l-8.63-0.035c-48.862,22.465-103.429,35.684-161.119,37.277c-19.601-5.113-33.989-21.957-33.989-41.984c0-19.094,13.107-35.295,31.336-41.186c58.502-1.32,113.826-14.576,163.321-37.309c0,0,17.22-9.211,28.144-13.883c51.081-22.732,108.211-35.48,168.553-35.48c61.464,0,119.604,13.223,171.428,36.785c15.091,7.447,28.016,14.033,28.016,14.033c48.789,22.412,103.268,35.652,160.848,37.26c17.618,6.195,30.162,22.123,30.162,40.812C790.903,806.824,776.121,823.871,756.084,828.712"/>
        <path d="M797.167-0.026c-61.065,0.372-145.36,15.685-196.822,39.316c0,0-17.238,9.208-28.141,13.881c-40.271,17.91-84.297,29.59-130.687,33.754c-20.055-4.909-34.855-22.192-34.855-42.794c0-22.295,17.346-40.729,39.927-43.743c1.354-0.186,2.744-0.321,4.134-0.389l-19.348-0.026h-29.124L372.875,0h-19.517c1.408,0.068,2.798,0.203,4.151,0.389c22.581,3.014,39.928,21.448,39.928,43.743c0,20.314-14.404,37.412-34.043,42.574c-46.606-4.452-90.812-16.489-131.174-34.838c-15.108-7.448-28.015-14.033-28.015-14.033C152.022,13.864,62.021,0,0,0v24.935c10.181-0.745,20.47-1.117,30.866-1.117c62.021,0,120.705,13.458,172.889,37.444h0.091c58.466,32.299,126.588,50.818,199.332,50.818c71.679,0,138.845-17.977,196.716-49.345l-8.646-0.034v-0.017l8.646,0.034c52.185-23.971,110.849-37.445,172.887-37.445c9.152,0,18.232,0.305,27.221,0.88V0 M421.662,88.229v-0.016h0.396C421.933,88.213,421.788,88.229,421.662,88.229"/>
    </g>
</svg>