<svg id="eventCatchers" xmlns="http://www.w3.org/2000/svg">
    <path id="backButtonZoneEventCatcher" d="M0,0v10.969c97.248-2.057,126.053,6.761,212.396,43.438c107.96,45.86,141.696,48.528,187.604,48.528V0H0z"/>
    <path id="homeButtonZoneEventCatcher" d="M800,0v10.969c-97.248-2.057-126.053,6.761-212.396,43.438c-107.96,45.86-141.696,48.528-187.604,48.528V0H800z"/>
    <path id="nextButtonZoneEventCatcher" d="M800,1280v-10.97c-97.248,2.057-126.053-6.761-212.396-43.438c-107.96-45.86-141.696-48.527-187.604-48.527V1280H800z"/>
    <path id="playPauseButtonZoneEventCatcher" d="M0,1279.467v-10.97c97.248,2.057,126.053-6.761,212.396-43.438c107.96-45.86,141.696-48.527,187.604-48.527v102.935H0z"/>
    <path id="inputZone5EventCatcher" d="M800,1269.029c-97.248,2.057-126.053-6.761-212.396-43.438c-107.96-45.86-141.696-48.527-187.604-48.527v-0.531c-45.908,0-79.645,2.667-187.604,48.527C126.053,1261.737,97.248,1270.554,0,1268.498v-107.591c97.248,2.057,126.053-6.761,212.396-43.438c107.96-45.86,141.696-48.527,187.604-48.527v0.531c45.908,0,79.645,2.667,187.604,48.527c86.343,36.677,115.147,45.494,212.396,43.438V1269.029z"/>
    <path id="inputZone4EventCatcher" d="M800,1161.436c-97.248,2.057-126.053-6.761-212.396-43.438c-107.96-45.86-141.696-48.527-187.604-48.527v-0.531c-45.908,0-79.645,2.667-187.604,48.527C126.053,1154.144,97.248,1162.961,0,1160.905v-107.591c97.248,2.057,126.053-6.761,212.396-43.438c107.96-45.86,141.696-48.527,187.604-48.527v0.531c45.908,0,79.645,2.667,187.604,48.527c86.343,36.677,115.147,45.494,212.396,43.438V1161.436z"/>
    <path id="inputZone3EventCatcher" d="M800,1053.836c-97.248,2.057-126.053-6.761-212.396-43.438c-107.96-45.86-141.696-48.527-187.604-48.527v-0.531c-45.908,0-79.645,2.667-187.604,48.527C126.053,1046.544,97.248,1055.362,0,1053.305V945.714c97.248,2.057,126.053-6.761,212.396-43.438C320.355,856.417,354.092,853.75,400,853.75v0.531c45.908,0,79.645,2.667,187.604,48.527c86.343,36.677,115.147,45.494,212.396,43.438V1053.836z"/>
    <path id="inputZone2EventCatcher" d="M800,946.237c-97.248,2.057-126.053-6.761-212.396-43.438c-107.96-45.86-141.696-48.527-187.604-48.527v-0.531c-45.908,0-79.645,2.667-187.604,48.527C126.053,938.945,97.248,947.762,0,945.706V838.115c97.248,2.057,126.053-6.761,212.396-43.438C320.355,748.817,354.092,746.15,400,746.15v0.531c45.908,0,79.645,2.667,187.604,48.527c86.343,36.677,115.147,45.494,212.396,43.438V946.237z"/>
    <path id="inputZone1EventCatcher" d="M800,838.636c-97.248,2.057-126.053-6.761-212.396-43.438c-107.96-45.86-141.696-48.527-187.604-48.527v-0.531c-45.908,0-79.645,2.667-187.604,48.527C126.053,831.344,97.248,840.162,0,838.105V730.514c97.248,2.057,126.053-6.761,212.396-43.438c107.96-45.86,141.696-48.527,187.604-48.527v0.531c45.908,0,79.645,2.667,187.604,48.527c86.343,36.677,115.147,45.494,212.396,43.438V838.636z"/>
    <path id="volumeSliderZoneEventCatcher" d="M800,731.037c-97.248,2.057-126.053-6.761-212.396-43.438c-107.96-45.86-141.696-48.527-187.604-48.527v-0.531c-45.908,0-79.645,2.667-187.604,48.527C126.053,723.745,97.248,732.562,0,730.505V622.915c97.248,2.057,126.053-6.761,212.396-43.438C320.355,533.617,354.092,530.95,400,530.95v0.531c45.908,0,79.645,2.667,187.604,48.527c86.343,36.677,115.147,45.494,212.396,43.438V731.037z"/>
    <path id="mainZoneEventCatcher" d="M0,622.905c97.248,2.057,126.053-6.761,212.396-43.438C320.355,533.607,354.092,530.94,400,530.94v0.531 c45.908,0,79.645,2.667,187.604,48.527c86.343,36.677,115.147,45.494,212.396,43.438V10.969 c-97.248-2.057-126.053,6.761-212.396,43.438c-107.96,45.86-141.696,48.528-187.604,48.528s-79.645-2.668-187.604-48.529 C126.053,17.729,97.248,8.912,0,10.968V622.905z"/>
</svg>