<svg id="airCirculationIcon" width="50px" height="50px">
    <path fill="none" stroke="#7E8183" stroke-width="3" stroke-linecap="round" stroke-linejoin="round" stroke-miterlimit="10" d="
        M31.944,22.847h-9.236v5.764h14.583l4.793-0.07c0.902-0.485,0.972-6.944-0.07-7.708c-0.486-0.347-5.416-0.278-5.973-0.417
        c-0.416-0.069-3.264-4.167-4.93-4.93H20.556c-1.667,0.764-4.444,4.792-4.931,4.93c-0.556,0.139-5.486,0-5.972,0.417
        c-1.042,0.764-0.972,7.292-0.069,7.708c0.069,0.07,2.222,0.07,7.014,0.07"/>
    <line fill="none" stroke="#7E8183" stroke-width="3" stroke-linecap="round" stroke-linejoin="round" stroke-miterlimit="10" x1="31.944" y1="22.847" x2="29.375" y2="20.278"/>
</svg>

<svg id="airControlIcon" width="50px" height="50px">
    <path fill="none" stroke="#000000" stroke-width="3" stroke-linecap="round" stroke-linejoin="round" stroke-miterlimit="10" d="
	M4.1,19.8h16.5c0,0,8.5,0.5,8.5-8.1c0-5.1-2.7-6.8-6-6.8c-5.5,0-5.6,7.6-0.4,7.6"/>
    <path fill="none" stroke="#000000" stroke-width="3" stroke-linecap="round" stroke-linejoin="round" stroke-miterlimit="10" d="
	M4.1,30.2h16.5c0,0,8.5-0.5,8.5,8.1c0,5.1-2.7,6.8-6,6.8c-5.5,0-5.6-7.6-0.4-7.6"/>
    <path fill="none" stroke="#000000" stroke-width="3" stroke-linecap="round" stroke-linejoin="round" stroke-miterlimit="10" d="
	M4.1,25.1h33.2c0,0,8.5,0.5,8.5-8.1c0-5.1-2.7-6.8-6-6.8c-5.5,0-5.6,7.6-0.4,7.6"/>
</svg>

<svg id="albumIcon" width="50px" height="50px">
    <circle fill="none" stroke="#000000" stroke-width="3" stroke-linecap="round" stroke-linejoin="round" stroke-miterlimit="10" cx="25.1" cy="19" r="3.8"/>
    <path fill="none" stroke="#000000" stroke-width="3" stroke-linecap="round" stroke-linejoin="round" stroke-miterlimit="10" d="
		M13,30.4c-1.1-1.1-2-2.4-2.8-3.8c-1.1-2.3-1.8-4.9-1.8-7.5c0-9.1,7.3-16.5,16.5-16.5S41.6,9.9,41.6,19s-7.3,16.6-16.5,16.6
		c-1.8,0-3.6-0.3-5.4-0.8"/>
    <path d="M6.6,39.9h2.1l3.1,8.6h-2l-0.5-1.6H6l-0.5,1.6h-2L6.6,39.9z M6.5,45.5h2.3L7.6,42h0L6.5,45.5z"/>
    <path d="M12.8,39.9h1.9v7h4.3v1.6h-6.1V39.9z"/>
    <path d="M20.2,39.9h3.6c2.1,0,3,1,3,2.3c0,0.9-0.5,1.5-1.3,1.8c0.9,0.3,1.6,0.9,1.6,2c0,1.6-1.2,2.4-3.2,2.4h-3.8V39.9z M23.6,43.5
		c0.9,0,1.3-0.4,1.3-1.1c0-0.6-0.4-1-1.3-1H22v2.1H23.6z M23.9,47c0.8,0,1.4-0.4,1.4-1.1c0-0.7-0.5-1.1-1.4-1.1H22V47H23.9z"/>
    <path d="M28.4,39.9h1.9v5.3c0,1.2,0.7,1.8,1.7,1.8c1,0,1.7-0.7,1.7-1.8v-5.3h1.9v5.3c0,2.3-1.5,3.4-3.6,3.4s-3.6-1.1-3.6-3.4V39.9z
		"/>
    <path d="M37.3,39.9h1.9l2.6,3.7l2.6-3.7h1.8v8.6h-1.8v-5.9l-2.7,3.7L39,42.6v5.9h-1.8V39.9z"/>
</svg>

<svg id="artistIcon" width="50px" height="50px">
    <path fill="none" stroke="#000000" stroke-width="3" stroke-linecap="round" stroke-linejoin="round" stroke-miterlimit="10" d="
	M10.2,36.6c0-2.1,0-4.7,0-6.8l0,0c0-2.1,0-3.8,0-4.8c0-2.9,3.5-6.4,7.2-6.4c4.1,0,7.4,3.3,7.4,6.4c0,4.2,0,8,0,11.6H10.2z"/>
    <ellipse fill="none" stroke="#000000" stroke-width="3" stroke-linecap="round" stroke-linejoin="round" stroke-miterlimit="10" cx="17.6" cy="9.1" rx="6.3" ry="5.9"/>
    <ellipse cx="32.2" cy="12.7" rx="3.7" ry="3.4"/>
    <line fill="none" stroke="#000000" stroke-width="3" stroke-linecap="round" stroke-linejoin="round" stroke-miterlimit="10" x1="36.5" y1="36.6" x2="36.5" y2="14.8"/>
    <line fill="none" stroke="#000000" stroke-width="3" stroke-linecap="round" stroke-linejoin="round" stroke-miterlimit="10" x1="39.8" y1="16.2" x2="32.2" y2="12.7"/>
    <path d="M5.8,40.4h2.1l3.1,8.7H9l-0.5-1.6H5.2l-0.5,1.6h-2L5.8,40.4z M5.7,46H8l-1.2-3.5h0L5.7,46z"/>
    <path d="M12.1,40.4h3.8c2.5,0,3.3,1.4,3.3,2.8c0,1-0.5,1.9-1.6,2.4l1.7,3.5h-2l-1.3-3.2h-2v3.2h-1.9V40.4z M15.9,44.5
		c1,0,1.5-0.6,1.5-1.3c0-0.8-0.5-1.3-1.5-1.3H14v2.6H15.9z"/>
    <path d="M22.9,42.1h-2.8v-1.7h7.6v1.7h-2.9v7h-1.9V42.1z"/>
    <path d="M28.8,40.4h1.9v8.7h-1.9V40.4z"/>
    <path d="M32.9,46.8c0.8,0.5,1.7,0.8,2.5,0.8c0.9,0,1.4-0.4,1.4-0.9c0-1.6-4.7-0.5-4.7-3.8c0-1.4,1.2-2.6,3.2-2.6
		c1.1,0,2.1,0.3,3.1,0.7l-0.7,1.5c-0.8-0.4-1.6-0.6-2.3-0.6c-0.8,0-1.3,0.4-1.3,0.9c0,1.6,4.7,0.5,4.7,3.8c0,1.5-1.1,2.6-3.3,2.6
		c-1.3,0-2.6-0.4-3.4-1L32.9,46.8z"/>
    <path d="M42.3,42.1h-2.8v-1.7H47v1.7h-2.9v7h-1.9V42.1z"/>
</svg>

<svg id="backIcon" width="50px" height="50px">
    <path fill="none" stroke="#7E8183" stroke-width="4" stroke-linecap="round" stroke-linejoin="round" stroke-miterlimit="10" d="M21.5,38.8L8.8,25l12.7-13.8 M41.2,38.8L28.5,25l12.7-13.8"/>
</svg>

<svg id="batteryIcon" width="50px" height="50px">
    <path fill="none" stroke="#000000" stroke-width="3" stroke-linecap="round" stroke-linejoin="round" stroke-miterlimit="10" d="
		M17.2,19.6V29 M29.6,24.4h9.1 M12.7,24.4h9.1 M30.6,12.1V7.9h6.8v4.2 M20.3,12.1V7.9h-6.8v4.2 M44,36.5H6.1V12.6h37.9v23.9H44z"/>
</svg>

<svg id="defrostFrontIcon" width="50px" height="50px">
    <path fill="none" stroke="#7E8183" stroke-width="3" stroke-linecap="round" stroke-linejoin="round" stroke-miterlimit="10" d="
	M30.7,26.8L26.8,23v15h7.3l11.3-15C45.4,23,38.6,12,25,12S4.6,23,4.6,23l11.3,15h6V23l-3.8,3.8"/>
</svg>

<svg id="defrostRearIcon" width="50px" height="50px">
    <polyline fill="none" stroke="#7E8183" stroke-width="3" stroke-linecap="round" stroke-linejoin="round" stroke-miterlimit="10" points="
	31.4,27.4 27.5,23.4 27.5,38.9 45.1,38.9 45.1,11.1 4.9,11.1 4.9,38.9 22.2,38.9 22.2,23.4 18.3,27.4 "/>
</svg>

<svg id="driverIcon" width="50px" height="50px">
    <path fill="none" stroke="#7E8183" stroke-width="3" stroke-linecap="round" stroke-linejoin="round" stroke-miterlimit="10" d="
		M34.7,38.3c-0.5-0.5-1.2-1.2-2.1-2.1c0,0-0.6-0.6-3-3c-0.7-1-1.8-1.8-3-1.8c0,0,0,0-0.1,0c-0.2,0-0.5,0-0.7,0c-0.6,0-1.4,0-2.2,0
		c0,0-0.2,0-1,0c0-3.2,0-6.5,0-10.1c0-1.8-1.9-3.8-4.2-3.8c-2,0-4,2-4,3.8c0,0.6,0,1.7,0,2.9l0,0c0,3.6,0,7.4,0,11.6
		c0,0.8,0.3,1.6,0.9,2.2c0.7,1,1.8,1.6,2.8,1.6c0.6,0,1.7,0,2.9,0c0,0,0.7,0,3.2,0c0.2,0.2,0.4,0.4,0.6,0.6c0,0,0.8,0.8,3.8,3.8
		c1.3,1.3,4,1.4,5.6-0.2C35.9,42.4,35.9,39.6,34.7,38.3z"/>

    <circle fill="none" stroke="#7E8183" stroke-width="3" stroke-linecap="round" stroke-linejoin="round" stroke-miterlimit="10" cx="18.8" cy="9.3" r="4.3"/>
</svg>

<svg id="driverAirFlowBothIcon" width="50px" height="50px">
    <path fill="none" stroke="#7E8183" stroke-width="2.493" stroke-linecap="round" stroke-linejoin="round" stroke-miterlimit="10" d="
        M12.9,17.7c3,0,5.4-2.4,5.4-5.3c0-2.9-2.4-5.3-5.4-5.3s-5.4,2.4-5.4,5.3C7.5,15.4,9.9,17.7,12.9,17.7z M32.9,48.3
        c-0.6-0.6-1.5-1.5-2.6-2.5c0,0-0.8-0.8-3.7-3.7c-0.9-1.2-2.4-2.1-3.7-2.1h-0.1c-0.3,0-0.6,0-0.9,0c-0.7,0-1.7,0-2.7,0
        c0,0-0.3,0-1.2,0V27.4c0-2.3-2.4-4.6-5.2-4.6c-2.5,0-5,2.4-5,4.6c0,0.8,0,2.1,0,3.6h0v14.3c0,1,0.4,1.9,1.1,2.8c0.9,1.2,2.3,2,3.6,2
        c0.8,0,2.1,0,3.7,0c0,0,0.9,0,4,0c0.2,0.2,0.5,0.5,0.8,0.8c0,0,1,1,4.7,4.7c1.6,1.6,5,1.6,7-0.3C34.4,53.3,34.4,49.8,32.9,48.3z"/>
    <line fill="none" stroke="#7E8183" stroke-width="2.493" stroke-linecap="round" stroke-linejoin="round" stroke-miterlimit="10" x1="27.9" y1="11.3" x2="38.6" y2="11.3"/>
    <line fill="none" stroke="#7E8183" stroke-width="2.493" stroke-linecap="round" stroke-linejoin="round" stroke-miterlimit="10" x1="36.1" y1="40.7" x2="43.6" y2="33.1"/>
</svg>

<svg id="driverAirFlowFaceIcon" width="50px" height="50px">
    <path fill="none" stroke="#7E8183" stroke-width="2.493" stroke-linecap="round" stroke-linejoin="round" stroke-miterlimit="10" d="
	M12.9,17.7c3,0,5.4-2.4,5.4-5.3c0-2.9-2.4-5.3-5.4-5.3s-5.4,2.4-5.4,5.3C7.5,15.4,9.9,17.7,12.9,17.7z M32.9,48.3
	c-0.6-0.6-1.5-1.5-2.6-2.5c0,0-0.8-0.8-3.7-3.7c-0.9-1.2-2.4-2.1-3.7-2.1h-0.1c-0.3,0-0.6,0-0.9,0c-0.7,0-1.7,0-2.7,0
	c0,0-0.3,0-1.2,0V27.4c0-2.3-2.4-4.6-5.2-4.6c-2.5,0-5,2.4-5,4.6c0,0.8,0,2.1,0,3.6h0v14.3c0,1,0.4,1.9,1.1,2.8c0.9,1.2,2.3,2,3.6,2
	c0.8,0,2.1,0,3.7,0c0,0,0.9,0,4,0c0.2,0.2,0.5,0.5,0.8,0.8c0,0,1,1,4.7,4.7c1.6,1.6,5,1.6,7-0.3C34.4,53.3,34.4,49.8,32.9,48.3z"/>
    <line fill="none" stroke="#7E8183" stroke-width="2.493" stroke-linecap="round" stroke-linejoin="round" stroke-miterlimit="10" x1="36.1" y1="40.7" x2="43.6" y2="33.1"/>
</svg>

<svg id="driverAirFlowFeetIcon" width="50px" height="50px">
    <path fill="none" stroke="#7E8183" stroke-width="2.493" stroke-linecap="round" stroke-linejoin="round" stroke-miterlimit="10" d="
	M16.6,13.9c2.4,0,4.2-1.9,4.2-4.2s-1.9-4.2-4.2-4.2s-4.2,1.9-4.2,4.2C12.3,12.1,14.2,13.9,16.6,13.9z M32.3,37.9
	c-0.5-0.5-1.2-1.2-2-2c0,0-0.6-0.6-2.9-2.9c-0.7-0.9-1.9-1.6-2.9-1.6h-0.1c-0.2,0-0.5,0-0.7,0c-0.5,0-1.3,0-2.1,0c0,0-0.2,0-0.9,0
	v-9.9c0-1.8-1.9-3.6-4.1-3.6c-2,0-3.9,1.9-3.9,3.6c0,0.6,0,1.6,0,2.8l0,0v11.2c0,0.8,0.3,1.5,0.9,2.2c0.7,0.9,1.8,1.6,2.8,1.6
	c0.6,0,1.6,0,2.9,0c0,0,0.7,0,3.1,0c0.2,0.2,0.4,0.4,0.6,0.6c0,0,0.8,0.8,3.7,3.7c1.3,1.3,3.9,1.3,5.5-0.2
	C33.5,41.8,33.5,39.1,32.3,37.9z"/>
    <line fill="none" stroke="#7E8183" stroke-width="2.493" stroke-linecap="round" stroke-linejoin="round" stroke-miterlimit="10" x1="28.3" y1="8.9" x2="36.7" y2="8.9"/>
</svg>

<svg id="fanIcon" width="50px" height="50px">
    <path fill="none" stroke="#7E8183" stroke-width="3" stroke-linecap="round" stroke-linejoin="round" stroke-miterlimit="10" d="
	M22.9,5.1c-2.5,0.3-4.8,2-5.1,5.4c-0.2,2.6-0.5,7-0.5,7s-2.9-1.8-5.5-2c-5-0.4-6.9,4-7,5.5C4.6,22.9,4.5,28.5,11,29
	c2.6,0.2,9.1-2.7,9.1-2.7S20,19.6,26,20.1"/>
    <path fill="none" stroke="#7E8183" stroke-width="3" stroke-linecap="round" stroke-linejoin="round" stroke-miterlimit="10" d="
	M27.1,44.9c2.5-0.3,4.8-2,5.1-5.4c0.2-2.6,0.5-7,0.5-7s2.9,1.8,5.5,2c5,0.4,6.9-4,7-5.5c0.1-1.8,0.2-7.3-6.2-7.8
	c-2.6-0.2-9.1,2.7-9.1,2.7s0.1,6.7-5.9,6.2"/>
</svg>

<svg id="homeIcon" width="50px" height="50px">
    <path fill="none" stroke="#7E8183" stroke-width="4" stroke-linecap="round" stroke-linejoin="round" stroke-miterlimit="10" d="M24.6,5.399L11.5,20.1v22.799 M18.3,44.6h20.2V20.5L24.6,5.399L11.5,20.1v22.799"/>
</svg>

<svg id="iPodIcon" width="50px" height="50px">
    <path fill="none" stroke="#7E8183" stroke-width="3" stroke-linecap="round" stroke-linejoin="round" stroke-miterlimit="10" d="
		M12.9,40.7c0-0.4,0-34.4,0-34.8c0-0.4,0.3-0.6,0.6-0.6c0.3,0,18.5,0,22.8,0c0.6,0,0.9,0.4,0.9,1c0,6,0,37.8,0,38
		c0,0.3-0.3,0.6-0.6,0.6c-0.1,0-13.3,0-19.5,0"/>

    <circle fill="none" stroke="#7E8183" stroke-width="3" stroke-linecap="round" stroke-linejoin="round" stroke-miterlimit="10" cx="25" cy="32.6" r="5.8"/>
</svg>

<svg id="lastIcon" width="50px" height="50px"
    <polygon fill="none" stroke="#7E8183" stroke-width="3" stroke-linecap="round" stroke-linejoin="round" stroke-miterlimit="10" points="
		28,37.8 28,12.2 26.6,12.2 14.8,24.9 26.6,37.8 	"/>

    <polygon fill="none" stroke="#7E8183" stroke-width="3" stroke-linecap="round" stroke-linejoin="round" stroke-miterlimit="10" points="
		42,37.8 42,12.2 40.8,12.2 28.9,24.9 40.8,37.8 	"/>

    <line fill="none" stroke="#7E8183" stroke-width="3" stroke-linecap="round" stroke-linejoin="round" stroke-miterlimit="10" x1="8" y1="37.8" x2="8" y2="12.2"/>
</svg>

<svg id="leafIcon" width="50px" height="50px">
    <path fill="none" stroke="#7E8183" stroke-width="3" stroke-linecap="round" stroke-linejoin="round" stroke-miterlimit="10" d="
		M7.7,43.7c-1.1-1.1-1.1-3.5-1.1-8c0-17.7,5.9-29.2,29.2-29.2c9.3,0,9.3,0,9.3,9.3c0,11.7-2,24.2-18.2,28"/>
    <path fill="none" stroke="#7E8183" stroke-width="3" stroke-linecap="round" stroke-linejoin="round" stroke-miterlimit="10" d="
		M29.6,20.7L7.7,43.7L29.6,20.7z"/>
</svg>

<svg id="medalIcon" width="50px" height="50px">
    <circle fill="none" stroke="#000000" stroke-width="3" stroke-linecap="round" stroke-linejoin="round" stroke-miterlimit="10" cx="25" cy="34.5" r="11.4"/>
    <path fill="none" stroke="#000000" stroke-width="3" stroke-linecap="round" stroke-linejoin="round" stroke-miterlimit="10" d="
		M20.8,13.4H29 M15.9,4.3h18.2 M33.6,26.9l7.3-14.4l-6.8-8.1l-7.8,18.1 M16.4,26.9L9.1,12.6l6.8-8.1l7.8,18"/>
    <polygon points="24.2,40 24.2,30.8 22,31.7 21.2,29.9 24.9,28.4 26.8,28.4 26.8,40 "/>
</svg>

<svg id="moneyIcon" width="50px" height="50px">
    <path fill="#7E8183" stroke="#7E8183" stroke-width="3" stroke-linecap="round" stroke-linejoin="round" stroke-miterlimit="10" d="
			M25.2,44.1c2.5,1.7,6.5,3.2,10.9,3.2c6.3,0,9.2-2.9,9.2-6.9c0-10.8-21-3.9-21-17.4c0-5.2,4.3-9.2,11.5-9.2c4.7,0,8.3,1.1,11,2.5
			l-1.1,2.4c-2.5-1.2-5.8-2.3-9.8-2.3c-5.5,0-8.7,2.8-8.7,6.6c0,10.9,21,3.8,21,17.4c0,5.3-3.9,9.4-12.1,9.4
			c-5.1,0-9.7-1.6-12.4-3.5L25.2,44.1z"/>

    <line fill="#7E8183" stroke="#7E8183" stroke-width="3" stroke-linecap="round" stroke-linejoin="round" stroke-miterlimit="10" x1="39.1" y1="3.8" x2="39.1" y2="8.3"/>

    <line fill="#7E8183" stroke="#7E8183" stroke-width="3" stroke-linecap="round" stroke-linejoin="round" stroke-miterlimit="10" x1="33.3" y1="3.8" x2="33.3" y2="8.3"/>

    <line fill="#7E8183" stroke="#7E8183" stroke-width="3" stroke-linecap="round" stroke-linejoin="round" stroke-miterlimit="10" x1="39.1" y1="55.1" x2="39.1" y2="61.1"/>

    <line fill="#7E8183" stroke="#7E8183" stroke-width="3" stroke-linecap="round" stroke-linejoin="round" stroke-miterlimit="10" x1="33.3" y1="55.1" x2="33.3" y2="61.1"/>
</svg>

<svg id="moreIcon" width="50px" height="50px">
    <path fill="none" stroke="#7E8183" stroke-width="3" stroke-linecap="round" stroke-linejoin="round" stroke-miterlimit="10" d="
		M30.7,19.8c7.8,0,9.7-0.8,9.7,3.2v4.5c0,3.3-2.3,2.6-9.7,2.6l-0.1,0.1c0,7.8,0.8,9.7-3.2,9.7h-4.5"/>
    <path fill="none" stroke="#7E8183" stroke-width="3" stroke-linecap="round" stroke-linejoin="round" stroke-miterlimit="10" d="
		M19.3,30.2c-7.8,0-9.7,0.8-9.7-3.2v-4.5c0-3.3,2.3-2.6,9.7-2.6l0.1-0.1c0-7.8-0.8-9.7,3.2-9.7h4.5"/>
</svg>

<svg id="musicIcon" width="50px" height="50px">
    <path fill="none" stroke="#7E8183" stroke-width="3" stroke-linecap="round" stroke-linejoin="round" stroke-miterlimit="10" d="
	M38.5,29c-1-0.9-2.2-0.6-2.2-0.6c-3.2,0-5.7,2.5-5.7,5.7c0,3.2,2.5,5.7,5.7,5.7c3.2,0,5.7-2.5,5.7-5.7V10.3H19.4V34
	c0,3.2-2.5,5.7-5.7,5.7S8,37.2,8,34c0-3.2,2.5-5.7,5.7-5.7c0,0,1.3-0.2,2.2,0.6"/>
</svg>

<svg id="navigationIcon" width="50px" height="50px">
    <polygon fill="none" stroke="#7E8183" stroke-width="3" stroke-linecap="round" stroke-linejoin="round" stroke-miterlimit="10" points="
		24.7,9.3 24.7,30.3 7.9,40.7 	"/>

    <polygon fill="#7E8183" stroke="#7E8183" stroke-width="3" stroke-linecap="round" stroke-linejoin="round" stroke-miterlimit="10" points="
		24.7,9.3 24.7,30.3 41.6,40.7 	"/>
</svg>

<svg id="nextIcon" width="50px" height="50px">
    <polygon fill="none" stroke="#7E8183" stroke-width="3" stroke-linecap="round" stroke-linejoin="round" stroke-miterlimit="10" points="
		21.9,11.3 21.9,38.7 23.4,38.7 35.5,24.9 23.4,11.3 	"/>

    <polygon fill="none" stroke="#7E8183" stroke-width="3" stroke-linecap="round" stroke-linejoin="round" stroke-miterlimit="10" points="
		7.3,11.3 7.3,38.7 8.6,38.7 20.9,24.9 8.6,11.3 	"/>

    <line fill="none" stroke="#7E8183" stroke-width="3" stroke-linecap="round" stroke-linejoin="round" stroke-miterlimit="10" x1="42.7" y1="11.3" x2="42.7" y2="38.7"/>
</svg>

<svg id="passengerIcon" width="50px" height="50px">
    <path fill="none" stroke="#7E8183" stroke-width="3" stroke-linecap="round" stroke-linejoin="round" stroke-miterlimit="10" d="
		M15.4,38.3c0.5-0.5,1.2-1.2,2.1-2.1c0,0,0.6-0.6,3-3c0.7-1,1.8-1.8,3-1.8c0,0,0,0,0.1,0c0.2,0,0.5,0,0.7,0c0.6,0,1.4,0,2.2,0
		c0,0,0.2,0,1,0c0-3.2,0-6.5,0-10.1c0-1.8,1.9-3.8,4.2-3.8c2,0,4,2,4,3.8c0,0.6,0,1.7,0,2.9l0,0c0,3.6,0,7.4,0,11.6
		c0,0.8-0.3,1.6-0.9,2.2c-0.7,1-1.8,1.6-2.8,1.6c-0.6,0-1.7,0-2.9,0c0,0-0.7,0-3.2,0c-0.2,0.2-0.4,0.4-0.6,0.6c0,0-0.8,0.8-3.8,3.8
		c-1.3,1.3-4,1.4-5.6-0.2C14.1,42.4,14.1,39.6,15.4,38.3z"/>
    <circle fill="none" stroke="#7E8183" stroke-width="3" stroke-linecap="round" stroke-linejoin="round" stroke-miterlimit="10" cx="31.3" cy="9.3" r="4.3"/>
</svg>

<svg id="passengerAirFlowBothIcon" width="50px" height="50px">
    <path fill="none" stroke="#7E8183" stroke-width="2.493" stroke-linecap="round" stroke-linejoin="round" stroke-miterlimit="10" d="
	M43.6,12.4c0-2.9-2.4-5.3-5.4-5.3s-5.4,2.4-5.4,5.3c0,2.9,2.4,5.3,5.4,5.3S43.6,15.4,43.6,12.4z M18.4,55c2,2,5.4,1.9,7,0.3
	c3.8-3.7,4.7-4.7,4.7-4.7c0.3-0.3,0.5-0.5,0.8-0.8c3.1,0,4,0,4,0c1.6,0,2.8,0,3.7,0c1.3,0,2.6-0.8,3.6-2c0.7-0.8,1.1-1.8,1.1-2.8
	V30.9h0c0-1.5,0-2.8,0-3.6c0-2.2-2.5-4.6-5-4.6c-2.8,0-5.2,2.4-5.2,4.6v12.6c-0.9,0-1.2,0-1.2,0c-1.1,0-2,0-2.7,0
	c-0.3,0-0.6,0-0.9,0h-0.1c-1.3,0-2.8,0.9-3.7,2.1c-2.9,2.9-3.7,3.7-3.7,3.7c-1.1,1.1-2,2-2.6,2.5C16.7,49.8,16.7,53.3,18.4,55z"/>
    <line fill="none" stroke="#7E8183" stroke-width="2.493" stroke-linecap="round" stroke-linejoin="round" stroke-miterlimit="10" x1="23.2" y1="11.3" x2="12.5" y2="11.3"/>
    <line fill="none" stroke="#7E8183" stroke-width="2.493" stroke-linecap="round" stroke-linejoin="round" stroke-miterlimit="10" x1="15" y1="40.7" x2="7.5" y2="33.1"/>
</svg>

<svg id="passengerAirFlowFaceIcon" width="50px" height="50px">
    <path fill="none" stroke="#7E8183" stroke-width="2.493" stroke-linecap="round" stroke-linejoin="round" stroke-miterlimit="10" d="
	M43.6,12.4c0-2.9-2.4-5.3-5.4-5.3s-5.4,2.4-5.4,5.3c0,2.9,2.4,5.3,5.4,5.3S43.6,15.4,43.6,12.4z M18.4,55c2,2,5.4,1.9,7,0.3
	c3.8-3.7,4.7-4.7,4.7-4.7c0.3-0.3,0.5-0.5,0.8-0.8c3.1,0,4,0,4,0c1.6,0,2.8,0,3.7,0c1.3,0,2.6-0.8,3.6-2c0.7-0.8,1.1-1.8,1.1-2.8
	V30.9h0c0-1.5,0-2.8,0-3.6c0-2.2-2.5-4.6-5-4.6c-2.8,0-5.2,2.4-5.2,4.6v12.6c-0.9,0-1.2,0-1.2,0c-1.1,0-2,0-2.7,0
	c-0.3,0-0.6,0-0.9,0h-0.1c-1.3,0-2.8,0.9-3.7,2.1c-2.9,2.9-3.7,3.7-3.7,3.7c-1.1,1.1-2,2-2.6,2.5C16.7,49.8,16.7,53.3,18.4,55z"/>
    <line fill="none" stroke="#7E8183" stroke-width="2.493" stroke-linecap="round" stroke-linejoin="round" stroke-miterlimit="10" x1="15" y1="40.7" x2="7.5" y2="33.1"/>
</svg>

<svg id="passengerAirFlowFeetIcon" width="50px" height="50px">
    <path fill="none" stroke="#7E8183" stroke-width="2.493" stroke-linecap="round" stroke-linejoin="round" stroke-miterlimit="10" d="
	M43.6,12.4c0-2.9-2.4-5.3-5.4-5.3s-5.4,2.4-5.4,5.3c0,2.9,2.4,5.3,5.4,5.3S43.6,15.4,43.6,12.4z M18.4,55c2,2,5.4,1.9,7,0.3
	c3.8-3.7,4.7-4.7,4.7-4.7c0.3-0.3,0.5-0.5,0.8-0.8c3.1,0,4,0,4,0c1.6,0,2.8,0,3.7,0c1.3,0,2.6-0.8,3.6-2c0.7-0.8,1.1-1.8,1.1-2.8
	V30.9h0c0-1.5,0-2.8,0-3.6c0-2.2-2.5-4.6-5-4.6c-2.8,0-5.2,2.4-5.2,4.6v12.6c-0.9,0-1.2,0-1.2,0c-1.1,0-2,0-2.7,0
	c-0.3,0-0.6,0-0.9,0h-0.1c-1.3,0-2.8,0.9-3.7,2.1c-2.9,2.9-3.7,3.7-3.7,3.7c-1.1,1.1-2,2-2.6,2.5C16.7,49.8,16.7,53.3,18.4,55z"/>
    <line fill="none" stroke="#7E8183" stroke-width="2.493" stroke-linecap="round" stroke-linejoin="round" stroke-miterlimit="10" x1="23.2" y1="11.3" x2="12.5" y2="11.3"/>
</svg>

<svg id="pauseIcon" width="50px" height="50px">
    <line fill="none" stroke="#7E8183" stroke-width="3" stroke-linecap="round" stroke-linejoin="round" stroke-miterlimit="10" x1="20.5" y1="35.6" x2="20.5" y2="14.4"/>
    <line fill="none" stroke="#7E8183" stroke-width="3" stroke-linecap="round" stroke-linejoin="round" stroke-miterlimit="10" x1="29.5" y1="35.6" x2="29.5" y2="14.4"/>
</svg>

<svg id="phoneIcon" width="50px" height="50px">
    <path fill="none" stroke="#7E8183" stroke-width="3" stroke-linecap="round" stroke-linejoin="round" stroke-miterlimit="10" d="
	M35.9,44c3,0.4,8.4-1.7,7.7-4.8c-0.7-3.1-7.1-8.2-10.3-7.7c-3.1,0.5,0.6,7.3-3.5,5.7S15.3,26.6,14.4,22.3c-0.9-4.2,5.8-0.2,6.2-3.3
	S14.5,6.5,11.3,6c-3.1-0.5-5.5,5.8-4.9,8.7S12.9,39.3,31,43.8"/>
</svg>

<svg id="playIcon" width="50px" height="50px">
    <polyline fill="none" stroke="#7E8183" stroke-width="3" stroke-linecap="round" stroke-linejoin="round" stroke-miterlimit="10" points="
		14.6,24.6 14.6,38 35.4,25 14.6,12"/>
    <line fill="none" stroke="#7E8183" stroke-width="3" stroke-linecap="round" stroke-linejoin="round" stroke-miterlimit="10" x1="14.6" y1="12" x2="14.6" y2="17.9"/>
</svg>

<svg id="playlistIcon" width="50px" height="50px">
    <path fill="none" stroke="#000000" stroke-width="3" stroke-linecap="round" stroke-linejoin="round" stroke-miterlimit="10" d="
	M29.5,24.7c-0.5-0.5-1.4-0.3-1.4-0.3c-2.1,0-3.6,1.5-3.6,3.6s1.5,3.6,3.6,3.6s3.6-1.5,3.6-3.6v-16h7.4v5h-4.6"/>
    <rect x="7.3" y="3.2" fill="none" stroke="#000000" stroke-width="3" stroke-linecap="round" stroke-linejoin="round" stroke-miterlimit="10" width="35.5" height="35.5"/>
    <line fill="none" stroke="#000000" stroke-width="3" stroke-linecap="round" stroke-linejoin="round" stroke-miterlimit="10" x1="12.4" y1="16.8" x2="22.9" y2="16.8"/>
    <line fill="none" stroke="#000000" stroke-width="3" stroke-linecap="round" stroke-linejoin="round" stroke-miterlimit="10" x1="12.4" y1="21.2" x2="22.9" y2="21.2"/>
    <line fill="none" stroke="#000000" stroke-width="3" stroke-linecap="round" stroke-linejoin="round" stroke-miterlimit="10" x1="12.4" y1="12.3" x2="22.9" y2="12.3"/>
    <path d="M8.7,41.9h1.5v5.7h3.5V49h-5V41.9z"/>
    <path d="M16.8,41.9h1.7l2.6,7.1h-1.6L19,47.6h-2.7L15.9,49h-1.6L16.8,41.9z M16.7,46.5h1.9l-0.9-2.9h0L16.7,46.5z"/>
    <path d="M23.2,46.1l-2.6-4.2h1.8l1.6,2.7h0l1.7-2.7h1.7l-2.6,4.2V49h-1.5V46.1z"/>
    <path d="M28.2,41.9h1.5v5.7h3.5V49h-5V41.9z"/>
    <path d="M34.3,41.9h1.5V49h-1.5V41.9z"/>
    <path d="M37.6,47.1c0.6,0.4,1.4,0.6,2.1,0.6c0.8,0,1.2-0.3,1.2-0.8c0-1.3-3.8-0.4-3.8-3.1c0-1.2,1-2.1,2.6-2.1
		c0.9,0,1.8,0.2,2.5,0.6l-0.6,1.2c-0.6-0.3-1.3-0.5-1.9-0.5c-0.7,0-1.1,0.3-1.1,0.7c0,1.3,3.8,0.4,3.8,3.1c0,1.2-0.9,2.1-2.7,2.1
		c-1.1,0-2.1-0.4-2.8-0.8L37.6,47.1z"/>
    <path d="M45.3,43.2H43v-1.4h6.2v1.4h-2.3V49h-1.5V43.2z"/>
</svg>

<svg id="profileIcon" width="50px" height="50px">
    <path fill="none" stroke="#000000" stroke-width="3" stroke-linecap="round" stroke-linejoin="round" stroke-miterlimit="10" d="
			M25,16.5c3.1,0,5.6-2.4,5.6-5.3S28.1,5.8,25,5.8s-5.6,2.4-5.6,5.3S21.9,16.5,25,16.5z M33.4,41.6V29c0-2.3-0.9-7.5-8.5-7.5
			c-7.5,0-8.3,5.3-8.3,7.5c0,0.8,0,2,0,3.6l0,0v9H33.4z"/>
</svg>

<svg id="radioIcon" width="50px" height="50px">
    <path fill="none" stroke="#7E8183" stroke-width="3" stroke-linecap="round" stroke-linejoin="round" stroke-miterlimit="10" d="
		M41.2,23.2c0,0.3,0,21.8,0,21.8s-31.7,0-31.9,0s-0.5-0.2-0.5-0.6c0-0.1,0-20.9,0-21.3c0-0.3,0.2-0.6,0.5-0.6c0.3,0,31.2,0,31.4,0
		C41,22.6,41.2,22.9,41.2,23.2z"/>
    <line fill="none" stroke="#7E8183" stroke-width="3" stroke-linecap="round" stroke-linejoin="round" stroke-miterlimit="10" x1="30.3" y1="14.4" x2="17.7" y2="22.6"/>
    <circle fill="none" stroke="#7E8183" stroke-width="3" stroke-linecap="round" stroke-linejoin="round" stroke-miterlimit="10" cx="14.4" cy="28.1" r="0.9"/>
    <path fill="none" stroke="#7E8183" stroke-width="3" stroke-linecap="round" stroke-linejoin="round" stroke-miterlimit="10" d="
			M25.4,37.7c-0.9-0.9-1.5-2-1.7-3.3c-0.4-3,1.8-5.8,4.9-6.2c0.4,0,0.8-0.1,1.2,0"/>
    <path fill="none" stroke="#7E8183" stroke-width="3" stroke-linecap="round" stroke-linejoin="round" stroke-miterlimit="10" d="
			M33.3,29.9c0.8,0.8,1.3,1.9,1.4,3.1c0.4,3-1.8,5.8-4.9,6.2c-0.3,0-0.5,0-0.8,0"/>
    <circle fill="none" stroke="#7E8183" stroke-width="3" stroke-linecap="round" stroke-linejoin="round" stroke-miterlimit="10" cx="14.4" cy="34.2" r="0.9"/>
    <path fill="none" stroke="#7E8183" stroke-width="3" stroke-linecap="round" stroke-linejoin="round" stroke-miterlimit="10" d="
		M36.4,4.9c0,0,2.2,1.6,3.5,4.2c1.3,2.7,1.2,5.5,1.2,5.5"/>
    <path fill="none" stroke="#7E8183" stroke-width="3" stroke-linecap="round" stroke-linejoin="round" stroke-miterlimit="10" d="
		M32.3,8.6c0,0,1.6,1.1,2.5,3c0.9,1.9,0.9,3.8,0.9,3.8"/>
</svg>

<svg id="recirculateIcon" width="50px" height="50px">
    <path fill="none" stroke="#7E8183" stroke-width="3" stroke-linecap="round" stroke-linejoin="round" stroke-miterlimit="10" d="
            M32.2,25.9H21.3v6.8h17.2l5.7-0.1c1.1-0.6,1.1-8.2-0.1-9.1c-0.6-0.4-6.4-0.3-7.1-0.5c-0.5-0.1-3.9-4.9-5.8-5.8H18.8
            c-2,0.9-5.2,5.7-5.8,5.8c-0.7,0.2-6.5,0-7.1,0.5c-1.2,0.9-1.1,8.6-0.1,9.1c0.1,0.1,2.6,0.1,8.3,0.1"/>

    <line fill="none" stroke="#7E8183" stroke-width="3" stroke-linecap="round" stroke-linejoin="round" stroke-miterlimit="10" x1="32.2" y1="25.9" x2="29.2" y2="22.9"/>
</svg>

<svg id="songIcon" width="50px" height="50px">
    <path fill="none" stroke="#000000" stroke-width="3" stroke-linecap="round" stroke-linejoin="round" stroke-miterlimit="10" d="
	M22,26.4c-1.1-0.9-2.5-0.8-2.5-0.8c-3.6,0-6.4,2.8-6.4,6.4s2.8,6.4,6.4,6.4s6.4-2.8,6.4-6.4V3.6h13.2v8.9h-8.3"/>
    <path d="M8.8,47.6c0.8,0.5,1.7,0.8,2.5,0.8c0.9,0,1.4-0.4,1.4-0.9c0-1.6-4.6-0.5-4.6-3.7c0-1.4,1.2-2.5,3.1-2.5
		c1.1,0,2.1,0.3,3.1,0.7l-0.7,1.4c-0.8-0.4-1.5-0.6-2.3-0.6c-0.8,0-1.3,0.4-1.3,0.9c0,1.6,4.6,0.5,4.6,3.7c0,1.4-1.1,2.6-3.3,2.6
		c-1.3,0-2.6-0.4-3.4-0.9L8.8,47.6z"/>
    <path d="M20,41.2c2.6,0,4.4,1.8,4.4,4.4c0,2.6-1.8,4.4-4.4,4.4c-2.6,0-4.4-1.8-4.4-4.4C15.6,43,17.4,41.2,20,41.2z M20,48.4
		c1.5,0,2.6-1.1,2.6-2.9c0-1.7-1-2.8-2.6-2.8c-1.5,0-2.5,1.1-2.5,2.8C17.5,47.3,18.5,48.4,20,48.4z"/>
    <path d="M25.8,41.3h1.8l3.8,5.6v-5.6H33v8.5h-1.7l-3.8-5.6v5.6h-1.8V41.3z"/>
    <path d="M38.8,41.2c1.3,0,2.3,0.4,3.1,1l-1,1.2c-0.6-0.4-1.3-0.7-2.1-0.7c-1.6,0-2.6,1.2-2.6,2.8c0,1.8,1,2.9,2.6,2.9
		c0.6,0,1.1-0.1,1.5-0.4v-1.7h-1.9v-1.3H42V49c-0.9,0.6-2,1-3.2,1c-2.7,0-4.4-1.8-4.4-4.5C34.4,43.1,36.1,41.2,38.8,41.2z"/>
</svg>

<svg id="timeIcon" width="50px" height="50px">
    <polyline fill="none" stroke="#7E8183" stroke-width="3" stroke-linecap="round" stroke-linejoin="round" stroke-miterlimit="10" points="
26.1,26.4 38.1,38.4 45,31.6 	"/>
    <path fill="none" stroke="#7E8183" stroke-width="3" stroke-linecap="round" stroke-linejoin="round" stroke-miterlimit="10" d="
M20.3,48.1c-1.5-1.6-2.7-3.3-3.7-5.3c-1.6-3.1-2.5-6.7-2.5-10.4c0-12.6,10.2-22.9,22.9-22.9s22.9,10.2,22.9,22.9
S49.5,55.3,36.9,55.3c-2.6,0-5.1-0.4-7.4-1.2"/>
</svg>

<svg id="settingsIcon" width="50px" height="50px">
    <path fill="none" stroke="#7E8183" stroke-width="3" stroke-linecap="round" stroke-linejoin="round" stroke-miterlimit="10" d="
		M29,13.5l-4.2,4.2l-4.2-4.2V5c0,0-5.8,2.5-5.8,8.6c0,6.1,5.6,8.1,5.6,8.1s0,12.9,0,15.2c0,2.8,0.9,3.3,4.1,3.3"/>
    <path fill="none" stroke="#7E8183" stroke-width="3" stroke-linecap="round" stroke-linejoin="round" stroke-miterlimit="10" d="
		M29.3,5c0,0,5.8,2.4,5.8,8.6c0,6.1-5.6,8.1-5.6,8.1s0,17.5,0,19.8c0,3.6-1,3.6-6,3.6"/>
</svg>

<svg id="temperatureIcon" width="50px" height="50px">
    <path fill="none" stroke="#7E8183" stroke-width="3" stroke-linecap="round" stroke-linejoin="round" stroke-miterlimit="10" d="
	M19.9,12.6c0-2.6,0-3.1,0-3.2c0-1.2-0.4-6.8,5.2-6.8c5.5,0,5.1,5.5,5.1,7c0,0.5,0,24.1,0,24.1c1.7,1.4,2.7,3.6,2.7,6
	c0,4.3-3.5,7.9-7.9,7.9c-4.3,0-7.9-3.5-7.9-7.9c0-2.4,1.1-4.5,2.7-6c0,0,0-12.9,0-14.5h2.1"/>
    <line fill="none" stroke="#7E8183" stroke-width="3" stroke-linecap="round" stroke-linejoin="round" stroke-miterlimit="10" x1="19.9" y1="25" x2="22.2" y2="25"/>
    <line fill="none" stroke="#7E8183" stroke-width="3" stroke-linecap="round" stroke-linejoin="round" stroke-miterlimit="10" x1="19.9" y1="13" x2="22.2" y2="13"/>
    <line fill="none" stroke="#7E8183" stroke-width="3" stroke-linecap="round" stroke-linejoin="round" stroke-miterlimit="10" x1="19.9" y1="30.2" x2="22.2" y2="30.2"/>
</svg>

<svg id="volumeDownIcon" width="50px" height="50px">
    <path fill="none" stroke="#7E8183" stroke-width="3" stroke-linecap="round" stroke-linejoin="round" stroke-miterlimit="10" d="
		M20.1,17.9c0,0-6-0.2-7.6-0.2s-3.5,0.7-3.6,6.6c-0.1,5.9,1.8,6.8,3.3,6.8c1.6,0,7.6,0.2,7.6,0.2l7.7,9.4c0,0,4.3,6.2,4.5-0.6
		c0.1-3.5,0.3-8.9,0.5-15.1s0.4-11.4,0.5-15.1c0.2-6.8-4.4-0.9-4.4-0.9l-3.8,4.1"/>
    <path fill="none" stroke="#7E8183" stroke-width="3" stroke-linecap="round" stroke-linejoin="round" stroke-miterlimit="10" d="
			M39.2,16.6c0,0,2,3.8,2,8.5s-2,8.5-2,8.5"/>
</svg>

<svg id="volumeUpIcon" width="50px" height="50px">
    <path fill="none" stroke="#7E8183" stroke-width="3" stroke-linecap="round" stroke-linejoin="round" stroke-miterlimit="10" d="
		M14.6,18c0,0-6-0.2-7.5-0.2s-3.4,0.6-3.7,6.5s1.7,6.7,3.2,6.8c1.6,0,7.5,0.2,7.5,0.2l7.6,9.3c0,0,4.3,6.2,4.5-0.6
		c0.1-3.6,0.3-8.8,0.5-14.9c0.2-6.2,0.3-11.4,0.5-14.9c0.2-6.8-4.5-0.9-4.5-0.9l-3.8,4.1"/>
    <path fill="none" stroke="#7E8183" stroke-width="3" stroke-linecap="round" stroke-linejoin="round" stroke-miterlimit="10" d="
		M38.9,15.4c0,0,2.3,4.3,2.3,9.6s-2.3,9.6-2.3,9.6"/>
    <path fill="none" stroke="#7E8183" stroke-width="3" stroke-linecap="round" stroke-linejoin="round" stroke-miterlimit="10" d="
		M33.6,16.7c0,0,2,3.8,2,8.5s-2,8.5-2,8.5"/>
    <path fill="none" stroke="#7E8183" stroke-width="3" stroke-linecap="round" stroke-linejoin="round" stroke-miterlimit="10" d="
		M43.9,13.5c0,0,2.7,5.2,2.7,11.6s-2.7,11.6-2.7,11.6"/>
</svg>
