<svg id="fanIcon">
	<path fill="none" stroke="#7E8183" stroke-width="3" stroke-linecap="round" stroke-linejoin="round" stroke-miterlimit="10" d="
		M23.542,11.042c-1.736,0.208-3.403,1.389-3.611,3.819c-0.139,1.806-0.347,4.931-0.347,4.931s-2.014-1.25-3.889-1.389
		c-3.542-0.277-4.861,2.778-4.931,3.889c-0.069,1.25-0.139,5.139,4.375,5.485c1.806,0.139,6.389-1.875,6.389-1.875
		s-0.069-4.722,4.167-4.375"/>
	<path fill="none" stroke="#7E8183" stroke-width="3" stroke-linecap="round" stroke-linejoin="round" stroke-miterlimit="10" d="
		M26.459,38.959c1.735-0.209,3.402-1.389,3.61-3.82c0.14-1.805,0.347-4.93,0.347-4.93s2.015,1.25,3.89,1.389
		c3.542,0.277,4.86-2.777,4.931-3.889c0.069-1.25,0.139-5.139-4.375-5.486c-1.806-0.139-6.389,1.875-6.389,1.875
		s0.068,4.723-4.167,4.375"/>
</svg>
