<svg id="temperatureIcon">
	<path fill="none" stroke="#7E8183" stroke-width="3" stroke-linecap="round" stroke-linejoin="round" stroke-miterlimit="10" d="
		M31.1,18.3c0-3,0-3.5,0-3.7c0-1.4-0.5-7.8,5.9-7.8c6.3,0,5.8,6.3,5.8,8c0,0.6,0,27.5,0,27.5c1.9,1.6,3.1,4.1,3.1,6.8c0,4.9-4,9-9,9
		c-4.9,0-9-4-9-9c0-2.7,1.2-5.1,3.1-6.8c0,0,0-14.7,0-16.6h2.4"/>
	
    <line fill="none" stroke="#7E8183" stroke-width="3" stroke-linecap="round" stroke-linejoin="round" stroke-miterlimit="10" x1="31.1" y1="32.4" x2="33.7" y2="32.4"/>

    <line fill="none" stroke="#7E8183" stroke-width="3" stroke-linecap="round" stroke-linejoin="round" stroke-miterlimit="10" x1="31.1" y1="18.8" x2="33.7" y2="18.8"/>

    <line fill="none" stroke="#7E8183" stroke-width="3" stroke-linecap="round" stroke-linejoin="round" stroke-miterlimit="10" x1="31.1" y1="38.4" x2="33.7" y2="38.4"/>
</svg>
